# xmcd CD database file
#
# Track frame offsets:
#	150
#	10677
#	18943
#	30627
#	50664
#	60936
#	78362
#	89968
#	105904
#	119031
#	127247
#	137076
#	148005
#	156679
#	166870
#	182642
#	199915
#	202732
#	219064
#	230261
#	244273
#
# Disc length: 3415 seconds
#
# Revision: 0
# Processed by: cddbd v1.4PL0 Copyright (c) Steve Scherf et al.
# Submitted via: CDex 1.50
#
DISCID=230d5515
DTITLE=Jody Gibson - Spanning The Decades 1957-2001
DYEAR=2001
DGENRE=Blues
TTITLE0=Good Morning Captain
TTITLE1=Heave Away Johnny
TTITLE2=Worried Man Blues
TTITLE3=Farewell To Tarwaithe
TTITLE4=Kissin' Time
TTITLE5=Providence Waltz
TTITLE6=San Antonio Rose
TTITLE7=Foxwood Polka
TTITLE8=Man On My Trail
TTITLE9=Company's Comin'
TTITLE10=Hillbilly Fever
TTITLE11=That's All
TTITLE12=So You Think You've Got Troubles?
TTITLE13=If You Don't Know
TTITLE14=Fredericks Of Galilee
TTITLE15=Keep On Fishin'
TTITLE16=Paddy Lay Back introduction
TTITLE17=Paddy Lay Back
TTITLE18=All For Me Grog
TTITLE19=D-Day Dodgers
TTITLE20=Twenty One Years
EXTD=YEAR: 2001
EXTT0=
EXTT1=
EXTT2=
EXTT3=
EXTT4=
EXTT5=
EXTT6=
EXTT7=
EXTT8=
EXTT9=
EXTT10=
EXTT11=
EXTT12=
EXTT13=
EXTT14=
EXTT15=
EXTT16=
EXTT17=
EXTT18=
EXTT19=
EXTT20=
PLAYORDER=
